<svg width="650" height="800" viewBox="0 0 650 800" fill="none" xmlns="http://www.w3.org/2000/svg">
<path d="M325 800C322.289 799.95 319.597 799.529 317 798.75C224.632 768.017 144.292 708.967 87.3877 629.983C30.4837 551 -0.0925931 456.097 0.000210631 358.75V150C0.000210631 143.37 2.63413 137.011 7.32254 132.322C12.0109 127.634 18.3698 125 25.0002 125C77.2237 125.186 128.963 114.982 177.205 94.9815C225.447 74.9808 269.228 45.5831 306 8.49996C311.021 3.35165 317.816 0.311773 325 -4.22572e-05C328.339 -0.151947 331.674 0.367142 334.809 1.52653C337.944 2.68592 340.814 4.46207 343.25 6.74996C380.033 44.1495 423.883 73.8635 472.252 94.1639C520.621 114.464 572.544 124.946 625 125C631.631 125 637.989 127.634 642.678 132.322C647.366 137.011 650 143.37 650 150V358.75C650.356 456.31 619.902 551.493 562.979 630.727C506.057 709.96 425.572 769.2 333 800C330.346 800.36 327.655 800.36 325 800ZM50.0002 175V359.5C50.0908 444.792 76.5705 527.967 125.806 597.614C175.042 667.26 244.622 719.966 325 748.5C405.499 719.923 475.164 667.103 524.41 597.308C573.657 527.512 600.065 444.17 600 358.75V175C497.739 169.444 400.561 128.63 325 59.5C249.406 128.577 152.248 169.383 50.0002 175Z" fill="black"/>
<path d="M275 250H375V329.5C375 334.937 372.84 340.151 368.996 343.996C365.151 347.84 359.937 350 354.5 350H295.5C290.063 350 284.849 347.84 281.005 343.996C277.16 340.151 275 334.937 275 329.5V250Z" fill="black"/>
<path d="M432.25 575H217.75C199.802 574.934 182.608 567.775 169.917 555.084C157.225 542.392 150.066 525.198 150 507.25V292.75C150.066 274.802 157.225 257.608 169.917 244.916C182.608 232.225 199.802 225.066 217.75 225H432.25C450.198 225.066 467.393 232.225 480.084 244.916C492.775 257.608 499.934 274.802 500 292.75V507.25C499.934 525.198 492.775 542.392 480.084 555.084C467.393 567.775 450.198 574.934 432.25 575ZM217.75 275C213.043 275 208.528 276.87 205.199 280.199C201.87 283.528 200 288.042 200 292.75V507.25C200 511.958 201.87 516.472 205.199 519.801C208.528 523.13 213.043 525 217.75 525H432.25C436.958 525 441.473 523.13 444.801 519.801C448.13 516.472 450 511.958 450 507.25V292.75C450 288.042 448.13 283.528 444.801 280.199C441.473 276.87 436.958 275 432.25 275H217.75Z" fill="black"/>
</svg>
