<svg height="100" viewBox="0 0 100 100" width="100" xmlns="http://www.w3.org/2000/svg"><g style="fill:none;fill-rule:evenodd;stroke-linecap:round;stroke-linejoin:round;stroke:#222f3e;stroke-width:4"><path d="m88.0578541 35.0403943c-1.1111545-2.3394381-4.2203131-8.7417698-6.4334516-11.9024591-2.2358309-3.1930975-7.1692082-8.2790743-8.9836396-10.1167983l2.0665658-1.447025c.8654035-.605962 1.0251095-1.87190061.3562041-2.82719642l-3.6346467-5.19081345c-.6736448-.96206448-1.9152111-1.23673431-2.7837019-.62861049 0 0-9.0482561 5.19575886-13.1179826 8.04541206-4.3185439 3.023877-12.0468286 9.5751784-12.0468286 9.5751784-.8727427.611101-1.0302868 1.8755259-.3613815 2.8308217l3.6346467 5.1908134c.6736448.9620645 1.9147219 1.2370769 2.7826092.6293757l1.9389831-1.3576906c.7553614 1.5203045 2.3985715 4.7762863 4.0493962 7.7120747l-51.35906775 35.9620064c-2.17662364 1.5240883-2.7002848 4.5142449-1.17975271 6.6857898 1.51743811 2.1671262 4.51399498 2.6989847 6.6860865 1.1780698l51.34877216-35.9547973c2.2140092 2.5880763 4.7006857 5.2192203 5.8690011 6.4379736l-1.935684 1.3553805c-.8678873.6077013-1.0339335 1.867992-.3602887 2.8300565l3.6346467 5.1908135c.6689053.9552958 1.9109592 1.2397115 2.7837019.6286105 0 0 8.9389593-5.0562823 13.1475577-8.0031745 4.179672-2.9266379 12.0172535-9.617416 12.0172535-9.617416.8684908-.6081239 1.0350263-1.8687572.3613815-2.8308217l-3.6346467-5.1908134c-.6689053-.9552958-1.9131211-1.2381978-2.7785246-.6322358z"/><path d="m90.2306337 88.4h3.9160897c1.6582985 0 3.002615 1.3348389 3.002615 2.9980115v3.603977c0 1.655756-1.3338926 2.9980115-3.002615 2.9980115h-41.99477c-1.6582985 0-3.002615-1.3348389-3.002615-2.9980115v-3.603977c0-1.655756 1.3338926-2.9980115 3.002615-2.9980115h3.9164364c-.1285816-.3341104-.1990514-.6974664-.1990514-1.0780115v-3.603977c0-1.655756 1.3336167-2.9980115 3.006516-2.9980115h28.546968c1.6604529 0 3.006516 1.3348389 3.006516 2.9980115v3.603977c0 .3799942-.0702413.7434765-.1987047 1.0780115z"/><path d="m56.1462637 25.2429088-5.6500163 3.956184m25.1710813-17.6249809-5.5807612 3.907691"/><path d="m71.5639983 47.2617157-5.6500163 3.956184m25.1710813-17.6249809-5.5807611 3.9076911"/></g></svg>