<svg width="80" height="16" viewBox="0 0 80 16" fill="none" xmlns="http://www.w3.org/2000/svg">
<path d="M9.41016 12.7148V15H2.25195V12.7148H9.41016ZM3.19922 0.78125V15H0.269531V0.78125H3.19922ZM24.525 7.55859V8.23242C24.525 9.31315 24.3785 10.2832 24.0855 11.1426C23.7926 12.002 23.3792 12.7344 22.8453 13.3398C22.3115 13.9388 21.6734 14.3978 20.9312 14.7168C20.1956 15.0358 19.3785 15.1953 18.4801 15.1953C17.5882 15.1953 16.7711 15.0358 16.0289 14.7168C15.2932 14.3978 14.6552 13.9388 14.1148 13.3398C13.5745 12.7344 13.1546 12.002 12.8551 11.1426C12.5621 10.2832 12.4156 9.31315 12.4156 8.23242V7.55859C12.4156 6.47135 12.5621 5.5013 12.8551 4.64844C13.148 3.78906 13.5615 3.05664 14.0953 2.45117C14.6357 1.8457 15.2737 1.38346 16.0094 1.06445C16.7516 0.745443 17.5686 0.585938 18.4605 0.585938C19.359 0.585938 20.176 0.745443 20.9117 1.06445C21.6539 1.38346 22.2919 1.8457 22.8258 2.45117C23.3661 3.05664 23.7828 3.78906 24.0758 4.64844C24.3753 5.5013 24.525 6.47135 24.525 7.55859ZM21.566 8.23242V7.53906C21.566 6.78385 21.4977 6.11979 21.3609 5.54688C21.2242 4.97396 21.0224 4.49219 20.7555 4.10156C20.4885 3.71094 20.163 3.41797 19.7789 3.22266C19.3948 3.02083 18.9553 2.91992 18.4605 2.91992C17.9658 2.91992 17.5263 3.02083 17.1422 3.22266C16.7646 3.41797 16.4423 3.71094 16.1754 4.10156C15.915 4.49219 15.7164 4.97396 15.5797 5.54688C15.443 6.11979 15.3746 6.78385 15.3746 7.53906V8.23242C15.3746 8.98112 15.443 9.64518 15.5797 10.2246C15.7164 10.7975 15.9182 11.2826 16.1852 11.6797C16.4521 12.0703 16.7776 12.3665 17.1617 12.5684C17.5458 12.7702 17.9853 12.8711 18.4801 12.8711C18.9749 12.8711 19.4143 12.7702 19.7984 12.5684C20.1826 12.3665 20.5048 12.0703 20.7652 11.6797C21.0257 11.2826 21.2242 10.7975 21.3609 10.2246C21.4977 9.64518 21.566 8.98112 21.566 8.23242ZM40.7141 7.55859V8.23242C40.7141 9.31315 40.5676 10.2832 40.2746 11.1426C39.9816 12.002 39.5682 12.7344 39.0344 13.3398C38.5005 13.9388 37.8625 14.3978 37.1203 14.7168C36.3846 15.0358 35.5676 15.1953 34.6691 15.1953C33.7772 15.1953 32.9602 15.0358 32.218 14.7168C31.4823 14.3978 30.8443 13.9388 30.3039 13.3398C29.7635 12.7344 29.3436 12.002 29.0441 11.1426C28.7512 10.2832 28.6047 9.31315 28.6047 8.23242V7.55859C28.6047 6.47135 28.7512 5.5013 29.0441 4.64844C29.3371 3.78906 29.7505 3.05664 30.2844 2.45117C30.8247 1.8457 31.4628 1.38346 32.1984 1.06445C32.9406 0.745443 33.7577 0.585938 34.6496 0.585938C35.548 0.585938 36.3651 0.745443 37.1008 1.06445C37.843 1.38346 38.481 1.8457 39.0148 2.45117C39.5552 3.05664 39.9719 3.78906 40.2648 4.64844C40.5643 5.5013 40.7141 6.47135 40.7141 7.55859ZM37.7551 8.23242V7.53906C37.7551 6.78385 37.6867 6.11979 37.55 5.54688C37.4133 4.97396 37.2115 4.49219 36.9445 4.10156C36.6776 3.71094 36.3521 3.41797 35.968 3.22266C35.5839 3.02083 35.1444 2.91992 34.6496 2.91992C34.1548 2.91992 33.7154 3.02083 33.3312 3.22266C32.9536 3.41797 32.6314 3.71094 32.3645 4.10156C32.104 4.49219 31.9055 4.97396 31.7687 5.54688C31.632 6.11979 31.5637 6.78385 31.5637 7.53906V8.23242C31.5637 8.98112 31.632 9.64518 31.7687 10.2246C31.9055 10.7975 32.1073 11.2826 32.3742 11.6797C32.6411 12.0703 32.9667 12.3665 33.3508 12.5684C33.7349 12.7702 34.1743 12.8711 34.6691 12.8711C35.1639 12.8711 35.6034 12.7702 35.9875 12.5684C36.3716 12.3665 36.6939 12.0703 36.9543 11.6797C37.2147 11.2826 37.4133 10.7975 37.55 10.2246C37.6867 9.64518 37.7551 8.98112 37.7551 8.23242ZM48.1531 0.78125V15H45.2234V0.78125H48.1531ZM56.6688 0.78125L51.034 7.80273L47.782 11.2988L47.2547 8.52539L49.452 5.51758L53.075 0.78125H56.6688ZM53.3387 15L49.1492 8.42773L51.3172 6.61133L56.8055 15H53.3387ZM66.1195 3.21289L62.2523 15H59.1371L64.4203 0.78125H66.4027L66.1195 3.21289ZM69.3324 15L65.4555 3.21289L65.143 0.78125H67.1449L72.4574 15H69.3324ZM69.1566 9.70703V12.002H61.6469V9.70703H69.1566ZM79.291 0.78125V15H76.3711V0.78125H79.291Z" fill="white"/>
</svg>
