<svg width="95" height="109" viewBox="0 0 95 109" fill="none" xmlns="http://www.w3.org/2000/svg">
<path d="M94.6412 26.4537V45.1078C91.382 44.7894 87.1471 44.0488 82.4625 42.3322C76.3455 40.0896 71.7923 37.0232 68.8099 34.649V72.3519L68.7338 72.2342C68.7822 72.9817 68.8099 73.7432 68.8099 74.5115C68.8099 93.2348 53.5796 108.477 34.8548 108.477C16.13 108.477 0.899719 93.2348 0.899719 74.5115C0.899719 55.7881 16.13 40.5395 34.8548 40.5395C36.6885 40.5395 38.4877 40.6848 40.2453 40.9686V59.3528C38.5569 58.7506 36.7439 58.4253 34.8548 58.4253C25.9906 58.4253 18.7734 65.6378 18.7734 74.5115C18.7734 83.3852 25.9906 90.5976 34.8548 90.5976C43.719 90.5976 50.9362 83.3783 50.9362 74.5115C50.9362 74.1792 50.9293 73.847 50.9086 73.5147V0.247864H69.5434C69.6126 1.82603 69.6749 3.41806 69.7441 4.99622C69.8686 8.10409 70.9758 11.0873 72.9064 13.5307C75.1691 16.4033 78.5113 19.7396 83.2029 22.4044C87.5969 24.8893 91.7211 25.9622 94.6412 26.4675V26.4537Z" fill="white"/>
</svg>
